name D:\school\WTK\thesis\model\3dpredictsim\Results\MidTarsalJoint\Fal_s1_bCst_PF_Natali2010_ls150_MT_k250_MTP_T5_ig24.mot
datacolumns 128
datarows 4
range 0.00000000 0.03406495
endheader
time	pelvis_tilt	pelvis_list	pelvis_rotation	pelvis_tx	pelvis_ty	pelvis_tz	hip_flexion_l	hip_adduction_l	hip_rotation_l	hip_flexion_r	hip_adduction_r	hip_rotation_r	knee_angle_l	knee_angle_r	ankle_angle_l	ankle_angle_r	subtalar_angle_l	subtalar_angle_r	mtj_angle_l	mtj_angle_r	mtp_angle_l	mtp_angle_r	lumbar_extension	lumbar_bending	lumbar_rotation	arm_flex_l	arm_add_l	arm_rot_l	arm_flex_r	arm_add_r	arm_rot_r	elbow_flex_l	elbow_flex_r	pro_sup_l	pro_sup_r	glut_med1_l/activation	glut_med2_l/activation	glut_med3_l/activation	glut_min1_l/activation	glut_min2_l/activation	glut_min3_l/activation	semimem_l/activation	semiten_l/activation	bifemlh_l/activation	bifemsh_l/activation	sar_l/activation	add_long_l/activation	add_brev_l/activation	add_mag1_l/activation	add_mag2_l/activation	add_mag3_l/activation	tfl_l/activation	pect_l/activation	grac_l/activation	glut_max1_l/activation	glut_max2_l/activation	glut_max3_l/activation	iliacus_l/activation	psoas_l/activation	quad_fem_l/activation	gem_l/activation	peri_l/activation	rect_fem_l/activation	vas_med_l/activation	vas_int_l/activation	vas_lat_l/activation	med_gas_l/activation	lat_gas_l/activation	soleus_l/activation	tib_post_l/activation	flex_dig_l/activation	flex_hal_l/activation	tib_ant_l/activation	per_brev_l/activation	per_long_l/activation	per_tert_l/activation	ext_dig_l/activation	ext_hal_l/activation	ercspn_l/activation	intobl_l/activation	extobl_l/activation	glut_med1_r/activation	glut_med2_r/activation	glut_med3_r/activation	glut_min1_r/activation	glut_min2_r/activation	glut_min3_r/activation	semimem_r/activation	semiten_r/activation	bifemlh_r/activation	bifemsh_r/activation	sar_r/activation	add_long_r/activation	add_brev_r/activation	add_mag1_r/activation	add_mag2_r/activation	add_mag3_r/activation	tfl_r/activation	pect_r/activation	grac_r/activation	glut_max1_r/activation	glut_max2_r/activation	glut_max3_r/activation	iliacus_r/activation	psoas_r/activation	quad_fem_r/activation	gem_r/activation	peri_r/activation	rect_fem_r/activation	vas_med_r/activation	vas_int_r/activation	vas_lat_r/activation	med_gas_r/activation	lat_gas_r/activation	soleus_r/activation	tib_post_r/activation	flex_dig_r/activation	flex_hal_r/activation	tib_ant_r/activation	per_brev_r/activation	per_long_r/activation	per_tert_r/activation	ext_dig_r/activation	ext_hal_r/activation	ercspn_r/activation	intobl_r/activation	extobl_r/activation	
          0.00000000	         -2.92923938	         -2.07332815	          5.21984603	          0.00000000	          0.91949733	         -0.00191390	        -16.61775198	         -0.82947979	          6.94877441	         29.45939364	          3.32310407	         -2.18798270	         -7.60908250	        -10.93180672	         -2.14965410	          5.81818458	          7.79221290	         -4.85158340	          5.56369633	         -0.17076003	         10.99040576	          0.78397033	         -1.99567701	          0.18604296	         -2.02872152	          5.28597080	        -13.45087546	         16.55903757	         -4.81409978	        -13.45591254	          6.96602055	         33.28957463	         16.60432595	         86.51662706	         86.51662706	          0.32910859	          0.10230308	          0.07867921	          0.32088589	          0.21263330	          0.11666792	          0.05000120	          0.05000024	          0.05000018	          0.05948218	          0.11455601	          0.05000007	          0.05000009	          0.05000014	          0.05000044	          0.05000038	          0.33124400	          0.05000032	          0.05000029	          0.05116224	          0.05003033	          0.05000130	          0.41657090	          0.64183965	          0.05000022	          0.05000109	          0.06451107	          0.24406702	          0.05000388	          0.05000180	          0.05000160	          0.30496666	          0.41719873	          0.35125396	          0.27391457	          0.27172837	          0.35215258	          0.05000007	          0.05307206	          0.12338304	          0.05000033	          0.05000010	          0.05000036	          0.05000001	          0.05000001	          0.05000003	          0.05000060	          0.05000057	          0.05946251	          0.05000013	          0.05000019	          0.05000178	          0.22225933	          0.05946279	          0.07679464	          0.05000097	          0.05000049	          0.08841688	          0.17965963	          0.20415864	          0.16560689	          0.10772320	          0.05946265	          0.05000328	          0.11557221	          0.05946433	          0.07014883	          0.10826719	          0.05000008	          0.05000012	          0.20197202	          0.05000153	          0.05000047	          0.05000011	          0.06233042	          0.06362230	          0.05237803	          0.05946246	          0.05946241	          0.05946247	          0.05051770	          0.05000122	          0.05000391	          0.45920581	          0.29509012	          0.18170356	          0.07868427	          0.44803382	          0.05000534	          0.05946252	          0.13620116	          0.11572573	
          0.01135498	         -2.92979494	         -2.16234814	          5.50532164	          0.01694061	          0.91861827	         -0.00171795	        -16.59822196	         -1.13741203	          6.76377796	         28.87350861	          3.69872485	         -2.00516313	         -9.31904735	        -10.97255567	         -2.60878159	          5.13172508	          8.80733518	         -5.24749817	          4.68751393	         -0.21321800	         12.73490447	          0.77369250	         -1.80863364	          0.38300612	         -2.10306988	          5.05470052	        -13.45874323	         16.94482102	         -5.68569596	        -13.45045922	          6.70487820	         34.42293295	         16.22260200	         86.51662706	         86.51662706	          0.27673650	          0.08602325	          0.06615876	          0.26982228	          0.17879627	          0.09810219	          0.05000285	          0.05000062	          0.05000080	          0.05001669	          0.09632652	          0.09266987	          0.07181768	          0.05003797	          0.05001115	          0.05001312	          0.27853212	          0.06964696	          0.05000850	          0.05000218	          0.05000134	          0.05000193	          0.35028053	          0.54852334	          0.05000073	          0.05002090	          0.05946256	          0.20522781	          0.05000191	          0.13280904	          0.12279519	          0.25643622	          0.35080846	          0.31788447	          0.24936288	          0.22849027	          0.30110423	          0.05000005	          0.05000057	          0.11756878	          0.05000022	          0.05000006	          0.05000027	          0.05000005	          0.07270761	          0.05646607	          0.05566924	          0.05000071	          0.05000015	          0.05946307	          0.05946234	          0.05000048	          0.18689051	          0.05000033	          0.06457406	          0.05000022	          0.05000113	          0.11894382	          0.25035294	          0.23097800	          0.16195682	          0.09858433	          0.05000031	          0.07072278	          0.09718140	          0.05000170	          0.05898588	          0.10959630	          0.07071490	          0.06791639	          0.54579950	          0.17060121	          0.14708745	          0.08409829	          0.19158708	          0.19017607	          0.16368525	          0.05000002	          0.05000004	          0.05000000	          0.05000016	          0.05000162	          0.05000117	          0.52230963	          0.24813218	          0.18368586	          0.19503103	          0.47558640	          0.05946344	          0.05000005	          0.11452698	          0.09730989	
          0.02270996	         -2.92668572	         -2.25337085	          5.76179453	          0.03423296	          0.91777651	         -0.00154032	        -16.52631176	         -1.44687132	          6.57179715	         28.16512899	          4.00346381	         -1.75804139	        -11.11095373	        -11.40355594	         -3.18574576	          4.45950826	          9.80057090	         -5.64404350	          3.63612094	         -0.38167173	         14.62608693	          0.76823175	         -1.59787151	          0.59259806	         -2.16684971	          4.73328323	        -13.46553911	         17.24605163	         -6.59376157	        -13.45104975	          6.48696025	         35.55087149	         15.89474827	         86.51662706	         86.51662706	          0.33761598	          0.07233408	          0.05563073	          0.22688467	          0.15034385	          0.08249088	          0.05000549	          0.05000159	          0.05000099	          0.05000027	          0.08099799	          0.12508644	          0.07068818	          0.05946361	          0.05946348	          0.05946301	          0.23420889	          0.07007140	          0.05218214	          0.05002815	          0.05004752	          0.05946161	          0.29510148	          0.54660178	          0.05629067	          0.05000184	          0.05000025	          0.17256919	          0.13216526	          0.11167552	          0.10325511	          0.21562858	          0.29498305	          0.26729836	          0.20968097	          0.19213006	          0.25318869	          0.05000003	          0.05000075	          0.14693944	          0.05000020	          0.05000009	          0.05000026	          0.05000038	          0.06113739	          0.05946277	          0.22889654	          0.05000021	          0.17607103	          0.05000058	          0.05000026	          0.05000066	          0.17513707	          0.09027991	          0.07783661	          0.05000043	          0.05000267	          0.10001595	          0.21051351	          0.19422186	          0.13618434	          0.10532328	          0.05000098	          0.05946991	          0.09044703	          0.05000095	          0.05000154	          0.09215600	          0.05946240	          0.05941314	          0.45894446	          0.14345289	          0.12368149	          0.07071543	          0.16109917	          0.15991270	          0.13763745	          0.05398121	          0.05554685	          0.05337485	          0.05000105	          0.05000116	          0.05000113	          0.43919285	          0.26951572	          0.15462969	          0.16399507	          0.55613360	          0.05000083	          0.05000002	          0.11896353	          0.08182461	
          0.03406495	         -2.92136192	         -2.34692221	          5.98330973	          0.05172456	          0.91699096	         -0.00136315	        -16.37874478	         -1.75409491	          6.37955242	         27.33939454	          4.25209848	         -1.50106882	        -13.00547519	        -11.80806178	         -3.90207223	          3.82115161	         10.75385765	         -6.04553569	          2.45627252	         -0.32739753	         16.58708336	          0.79304764	         -1.37876282	          0.81452988	         -2.22068559	          4.34254699	        -13.47372185	         17.46999922	         -7.50189779	        -13.45738460	          6.32537443	         36.66666187	         15.60089840	         86.51662706	         86.51662706	          0.30849959	          0.06082333	          0.05000011	          0.36699886	          0.12641921	          0.06936388	          0.05000214	          0.05000021	          0.05000018	          0.05000047	          0.07071697	          0.10518153	          0.05943943	          0.05000114	          0.05000146	          0.05000089	          0.23482021	          0.05892207	          0.05000060	          0.05000155	          0.05000086	          0.05000059	          0.24814190	          0.51439981	          0.05000011	          0.05000074	          0.05000044	          0.14510786	          0.11113463	          0.09390492	          0.12487471	          0.18131481	          0.24804132	          0.22476218	          0.17631372	          0.16155585	          0.21289796	          0.05708155	          0.08749426	          0.14997698	          0.05000065	          0.09549042	          0.05000074	          0.06059261	          0.05140837	          0.05000026	          0.30062784	          0.25878086	          0.30679890	          0.16337874	          0.19585883	          0.16618870	          0.14726689	          0.07591355	          0.06545025	          0.08214283	          0.05000541	          0.08410008	          0.17701377	          0.16331480	          0.11451311	          0.12700443	          0.05000077	          0.05000669	          0.07605459	          0.18788723	          0.14108429	          0.09829818	          0.05000013	          0.05000012	          0.38591100	          0.12062488	          0.12791420	          0.05946228	          0.13546325	          0.13446595	          0.11573504	          0.05000034	          0.05000080	          0.05000005	          0.05000008	          0.05000030	          0.05000039	          0.55864099	          0.33657082	          0.18099021	          0.47240670	          0.51240689	          0.22559137	          0.07024361	          0.10003265	          0.06880357	
